<?xml version="1.0" encoding="utf-8"?>
<!-- Generator: Adobe Illustrator 21.1.0, SVG Export Plug-In . SVG Version: 6.00 Build 0)  -->
<svg version="1.1" id="Layer_1" xmlns="http://www.w3.org/2000/svg" xmlns:xlink="http://www.w3.org/1999/xlink" x="0px" y="0px"
	 viewBox="0 0 24 24" style="enable-background:new 0 0 24 24;" xml:space="preserve">
<style type="text/css">
	.st0{fill:#FFFFFF;}
</style>
<path d="M12-0.7c-6.6,0-12,5.4-12,12c0,6.6,5.4,12,12,12s12-5.4,12-12C24,4.7,18.6-0.7,12-0.7z M18.7,12.7l-4.5,4.5
	c-0.2,0.2-0.5,0.3-0.7,0.3s-0.5-0.1-0.7-0.3c-0.4-0.4-0.4-1,0-1.4l2.8-2.8H6c-0.6,0-1-0.4-1-1s0.4-1,1-1h9.6l-2.8-2.8
	c-0.4-0.4-0.4-1,0-1.4s1-0.4,1.4,0l4.5,4.5c0.1,0.1,0.2,0.2,0.2,0.3C19,11.7,19,11.9,19,12s0,0.3-0.1,0.4
	C18.9,12.5,18.8,12.6,18.7,12.7z"/>
<path class="st0" d="M18.9,11.6c-0.1-0.1-0.1-0.2-0.2-0.3l0,0C18.8,11.4,18.9,11.5,18.9,11.6z"/>
<path class="st0" d="M18.7,12.7c0.1-0.1,0.2-0.2,0.2-0.3C18.9,12.5,18.8,12.6,18.7,12.7L18.7,12.7z"/>
<path class="st0" d="M18.9,11.6c0,0.1,0.1,0.2,0.1,0.4C19,11.9,19,11.7,18.9,11.6z"/>
<path class="st0" d="M18.9,12.4C19,12.3,19,12.1,19,12C19,12.1,19,12.3,18.9,12.4z"/>
</svg>
