<?xml version="1.0" encoding="utf-8"?>
<!-- Generator: Adobe Illustrator 21.1.0, SVG Export Plug-In . SVG Version: 6.00 Build 0)  -->
<svg version="1.1" id="Layer_1" xmlns="http://www.w3.org/2000/svg" xmlns:xlink="http://www.w3.org/1999/xlink" x="0px" y="0px"
	 viewBox="0 0 24 24" style="enable-background:new 0 0 24 24;" xml:space="preserve">
<path d="M22.2,7.8c-0.5-1.3-1.3-2.5-2.4-3.5C17.7,2.1,15.1,1,12,1C8.9,1,6.4,2.1,4.3,4.2C3.2,5.3,2.4,6.5,1.8,7.8
	C1.3,9.1,1,10.5,1,12c0,1.5,0.3,2.9,0.8,4.2s1.4,2.5,2.4,3.6c1.1,1.1,2.2,1.9,3.6,2.4C9.1,22.7,10.5,23,12,23c1.5,0,2.9-0.3,4.2-0.8
	c1.4-0.6,2.6-1.4,3.7-2.4c1-1,1.8-2.2,2.3-3.5c0.5-1.3,0.8-2.7,0.8-4.2C23,10.5,22.7,9.1,22.2,7.8z M12.1,21.9
	c-5.5,0-9.9-4.4-9.9-9.9c0-5.5,4.4-9.9,9.9-9.9S22,6.5,22,12C22,17.5,17.6,21.9,12.1,21.9z"/>
<path d="M12.1,2.1c-5.5,0-9.9,4.4-9.9,9.9c0,5.5,4.4,9.9,9.9,9.9S22,17.5,22,12C22,6.5,17.6,2.1,12.1,2.1z M21,12
	c0,2.5-0.9,4.6-2.6,6.3c-0.9,0.9-1.9,1.5-3,2C14.3,20.7,13.2,21,12,21c-1.2,0-2.3-0.2-3.4-0.7c-1.1-0.5-2.1-1.1-2.9-2
	c-0.9-0.9-1.5-1.8-2-2.9C3.2,14.3,3,13.2,3,12c0-1.2,0.2-2.3,0.7-3.4c0.5-1.1,1.1-2.1,2-3C7.4,3.9,9.5,3,12,3c2.5,0,4.6,0.9,6.4,2.7
	c0.9,0.9,1.5,1.8,1.9,2.9C20.8,9.6,21,10.8,21,12z"/>
<path d="M9.2,13.9c-0.5,0-0.9-0.2-1.1-0.5c-0.2-0.4-0.4-0.8-0.4-1.4c0-1.3,0.5-1.9,1.5-1.9c0.2,0,0.4,0.1,0.6,0.2
	c0.2,0.1,0.4,0.4,0.6,0.7l1.5-0.8C11.3,9.1,10.3,8.6,9,8.6C8,8.6,7.3,8.9,6.6,9.5C6,10.1,5.7,11,5.7,12c0,1.1,0.3,1.9,0.9,2.5
	C7.2,15.1,8,15.4,9,15.4c0.6,0,1.2-0.2,1.7-0.5c0.5-0.3,0.9-0.7,1.2-1.3L10.5,13C10.3,13.6,9.8,13.9,9.2,13.9z"/>
<path d="M15.5,13.9c-0.5,0-0.9-0.2-1.1-0.5c-0.2-0.4-0.4-0.8-0.4-1.4c0-1.3,0.5-1.9,1.5-1.9c0.2,0,0.4,0.1,0.7,0.2
	c0.2,0.1,0.4,0.4,0.6,0.7l1.5-0.8c-0.6-1.1-1.5-1.6-2.9-1.6c-0.9,0-1.7,0.3-2.3,0.9c-0.6,0.6-0.9,1.4-0.9,2.5c0,1.1,0.3,1.9,0.9,2.5
	c0.6,0.6,1.4,0.9,2.4,0.9c0.6,0,1.2-0.2,1.7-0.5c0.5-0.3,0.9-0.7,1.2-1.3L16.9,13C16.6,13.6,16.2,13.9,15.5,13.9z"/>
</svg>
