<?xml version="1.0" encoding="utf-8"?>
<!-- Generator: Adobe Illustrator 21.1.0, SVG Export Plug-In . SVG Version: 6.00 Build 0)  -->
<svg version="1.1" id="Layer_1" xmlns="http://www.w3.org/2000/svg" xmlns:xlink="http://www.w3.org/1999/xlink" x="0px" y="0px"
	 viewBox="0 0 24 24" style="enable-background:new 0 0 24 24;" xml:space="preserve">
<g>
	<path d="M12,22c5.5,0,10-4.5,10-10c0-5.5-4.5-10-10-10S2,6.5,2,12C2,17.5,6.5,22,12,22z M6.3,13.8l5-5c0.2-0.2,0.5-0.3,0.7-0.3
		s0.5,0.1,0.7,0.3l5,5c0.4,0.4,0.4,1,0,1.4s-1,0.4-1.4,0L12,10.9l-4.3,4.3c-0.4,0.4-1,0.4-1.4,0S5.9,14.2,6.3,13.8z"/>
</g>
</svg>
