<?xml version="1.0" encoding="utf-8"?>
<!-- Generator: Adobe Illustrator 21.1.0, SVG Export Plug-In . SVG Version: 6.00 Build 0)  -->
<svg version="1.1" id="Layer_1" xmlns="http://www.w3.org/2000/svg" xmlns:xlink="http://www.w3.org/1999/xlink" x="0px" y="0px"
	 viewBox="0 0 16 16" style="enable-background:new 0 0 16 16;" xml:space="preserve">
<g>
	<path d="M8,13.1c-2.8,0-5.1-2.3-5.1-5.1S5.2,2.9,8,2.9s5.1,2.3,5.1,5.1S10.8,13.1,8,13.1z M11.3,7.7c0.2-0.2,0.2-0.4,0-0.6
		l-0.7-0.7c-0.2-0.2-0.4-0.2-0.6,0L8,8.4L5.9,6.4c-0.2-0.2-0.4-0.2-0.6,0L4.7,7.1c-0.2,0.2-0.2,0.4,0,0.6l3,3c0.2,0.2,0.4,0.2,0.6,0
		L11.3,7.7z"/>
</g>
</svg>
