<?xml version="1.0" encoding="utf-8"?>
<!-- Generator: Adobe Illustrator 21.1.0, SVG Export Plug-In . SVG Version: 6.00 Build 0)  -->
<svg version="1.1" id="Layer_1" xmlns="http://www.w3.org/2000/svg" xmlns:xlink="http://www.w3.org/1999/xlink" x="0px" y="0px"
	 viewBox="0 0 24 24" style="enable-background:new 0 0 24 24;" xml:space="preserve">
<g>
	<path d="M12,2C6.5,2,2,6.5,2,12c0,5.5,4.5,10,10,10s10-4.5,10-10C22,6.5,17.5,2,12,2z M17.7,10.2l-5,5c-0.2,0.2-0.5,0.3-0.7,0.3
		s-0.5-0.1-0.7-0.3l-5-5c-0.4-0.4-0.4-1,0-1.4s1-0.4,1.4,0l4.3,4.3l4.3-4.3c0.4-0.4,1-0.4,1.4,0S18.1,9.8,17.7,10.2z"/>
</g>
</svg>
