<?xml version="1.0" encoding="utf-8"?>
<!-- Generator: Adobe Illustrator 21.1.0, SVG Export Plug-In . SVG Version: 6.00 Build 0)  -->
<svg version="1.1" id="Layer_1" xmlns="http://www.w3.org/2000/svg" xmlns:xlink="http://www.w3.org/1999/xlink" x="0px" y="0px"
	 viewBox="0 0 24 24" style="enable-background:new 0 0 24 24;" xml:space="preserve">
<g>
	<path d="M12,4c4.4,0,8,3.6,8,8s-3.6,8-8,8s-8-3.6-8-8S7.6,4,12,4z M6.8,12.5c-0.3,0.3-0.3,0.7,0,0.9l1.1,1.1c0.3,0.3,0.7,0.3,0.9,0
		l3.2-3.2l3.2,3.2c0.3,0.3,0.7,0.3,0.9,0l1.1-1.1c0.3-0.3,0.3-0.7,0-0.9l-4.7-4.7c-0.3-0.3-0.7-0.3-0.9,0L6.8,12.5z"/>
</g>
</svg>
