<?xml version="1.0" encoding="utf-8"?>
<!-- Generator: Adobe Illustrator 21.1.0, SVG Export Plug-In . SVG Version: 6.00 Build 0)  -->
<svg version="1.1" id="Layer_1" xmlns="http://www.w3.org/2000/svg" xmlns:xlink="http://www.w3.org/1999/xlink" x="0px" y="0px"
	 viewBox="0 0 24 24" style="enable-background:new 0 0 24 24;" xml:space="preserve">
<path d="M19.5,3.8l-5.7-2.9c-0.6-0.3-1.2-0.4-1.8-0.4c-0.6,0-1.2,0.1-1.7,0.4L4.5,3.8c-1.1,0.6-1.8,1.7-1.8,3v10.5
	c0,1.3,0.7,2.4,1.8,3l5.7,2.9c0.6,0.3,1.2,0.4,1.8,0.4c0.6,0,1.2-0.1,1.7-0.4l5.7-2.9c1.1-0.6,1.8-1.7,1.8-3V6.7
	C21.3,5.5,20.6,4.3,19.5,3.8z M19.6,17L19.6,17c-0.1,0.7-0.4,1.3-1,1.6L13,21.4c-0.3,0.2-0.7,0.2-1,0.2c-0.4,0-0.8-0.1-1.1-0.2
	l-3.3-1.6l3.3-1.6c0.5,0.7,1.5,0.8,2.2,0.3c0.4-0.3,0.6-0.7,0.6-1.2c0-0.1,0-4.8,0-4.8l0.4-0.2c0.4,0.4,1,0.3,1.3,0
	c0.4-0.4,0.3-1,0-1.3s-1-0.3-1.3,0c-0.2,0.2-0.3,0.4-0.3,0.7l-0.6,0.3c-0.1,0.1-0.2,0.2-0.2,0.3v3.7c-0.1-0.1-0.3-0.2-0.5-0.2V8.6
	l2.2-1.1c0.4,0.3,1,0.3,1.3-0.1c0.3-0.4,0.3-1-0.1-1.3c-0.4-0.3-1-0.3-1.3,0.1c-0.1,0.2-0.2,0.4-0.2,0.6c0,0,0,0,0,0.1L12,8
	c-0.6-0.6-1.5-0.7-2.2-0.2C9.5,8.1,9.3,8.5,9.3,9c0,0,0,4.9,0,4.9l-0.5,0.2c-0.4-0.3-1-0.2-1.3,0.2c-0.3,0.4-0.2,1,0.2,1.3
	s1,0.2,1.3-0.2c0.1-0.2,0.2-0.5,0.2-0.7l0.6-0.3c0.1-0.1,0.2-0.2,0.2-0.3v-3.9c0.1,0.1,0.3,0.2,0.5,0.2v7l-3.7,1.9l-1.4-0.7
	c-0.6-0.3-1-1-1-1.6V7c0-0.7,0.4-1.3,1-1.6l5.5-2.7c0.3-0.2,0.7-0.2,1-0.2c0.4,0,0.8,0.1,1.1,0.2l5.5,2.7c0.6,0.3,1,1,1,1.6V17z
	 M11.7,15.7c-0.2,0-0.3,0.1-0.5,0.2v-5.5c0.2,0,0.3-0.1,0.5-0.2V15.7z M12.1,16.4c0.4,0,0.8,0.4,0.8,0.8c0,0.4-0.4,0.8-0.8,0.8
	c-0.4,0-0.8-0.4-0.8-0.8c0,0,0,0,0,0C11.3,16.7,11.7,16.4,12.1,16.4z M10.9,9.7C10.9,9.7,10.9,9.7,10.9,9.7c-0.4,0-0.8-0.4-0.8-0.8
	c0-0.4,0.4-0.8,0.8-0.8c0.4,0,0.8,0.4,0.8,0.8C11.7,9.3,11.3,9.7,10.9,9.7z M14.3,11.5c0-0.2,0.2-0.4,0.4-0.4c0.2,0,0.4,0.2,0.4,0.4
	s-0.2,0.4-0.4,0.4C14.5,11.9,14.3,11.7,14.3,11.5z M14.9,6.7c0-0.2,0.2-0.4,0.4-0.4s0.4,0.2,0.4,0.4s-0.2,0.4-0.4,0.4
	C15.1,7.1,14.9,6.9,14.9,6.7L14.9,6.7z M8.7,14.8c0,0.2-0.2,0.4-0.4,0.4S7.9,15,7.9,14.8c0-0.2,0.2-0.4,0.4-0.4S8.7,14.5,8.7,14.8z"
	/>
</svg>
