<?xml version="1.0" encoding="utf-8"?>
<!-- Generator: Adobe Illustrator 21.1.0, SVG Export Plug-In . SVG Version: 6.00 Build 0)  -->
<svg version="1.1" id="Layer_1" xmlns="http://www.w3.org/2000/svg" xmlns:xlink="http://www.w3.org/1999/xlink" x="0px" y="0px"
	 viewBox="0 0 24 24" style="enable-background:new 0 0 24 24;" xml:space="preserve">
<path d="M12,1C5.9,1,1,5.9,1,12s4.9,11,11,11s11-4.9,11-11S18.1,1,12,1z M12.7,17.7C12.5,17.9,12.3,18,12,18s-0.5-0.1-0.7-0.3
	C11.1,17.5,11,17.3,11,17c0-0.1,0-0.3,0.1-0.4c0.1-0.1,0.1-0.2,0.2-0.3c0.4-0.4,1-0.4,1.4,0c0.1,0.1,0.2,0.2,0.2,0.3
	C13,16.7,13,16.9,13,17C13,17.3,12.9,17.5,12.7,17.7z M12.2,13.9C12.1,14,12,14,11.9,14c-0.4,0-0.8-0.3-0.9-0.7
	c-0.2-0.5,0.1-1.1,0.6-1.3c0.6-0.2,2.3-1,2.3-2.1c0-0.9-0.5-1.6-1.3-1.9c-0.5-0.2-1-0.1-1.5,0.1c-0.5,0.2-0.8,0.6-1,1.1
	c-0.2,0.5-0.8,0.8-1.3,0.6C8.2,9.8,8,9.2,8.1,8.7c0.4-1,1.1-1.8,2-2.3c1-0.5,2-0.5,3.1-0.2c1.6,0.6,2.7,2.1,2.7,3.8
	C15.9,12.6,12.6,13.8,12.2,13.9z"/>
</svg>
