<?xml version="1.0" encoding="utf-8"?>
<!-- Generator: Adobe Illustrator 21.1.0, SVG Export Plug-In . SVG Version: 6.00 Build 0)  -->
<svg version="1.1" id="Layer_1" xmlns="http://www.w3.org/2000/svg" xmlns:xlink="http://www.w3.org/1999/xlink" x="0px" y="0px"
	 viewBox="0 0 24 24" style="enable-background:new 0 0 24 24;" xml:space="preserve">
<style type="text/css">
	.st0{fill:none;stroke:#000000;stroke-width:2;stroke-linecap:round;stroke-linejoin:round;}
</style>
<circle class="st0" cx="12" cy="12" r="10"/>
<g>
	<path d="M12.9,16.8c-0.3,0.3-0.5,0.5-0.7,0.5c-0.1,0-0.1,0-0.2,0c-0.1,0-0.1-0.1-0.1-0.3s0-0.5,0.2-0.9c0-0.2,0.1-0.5,0.3-1
		l1.5-5.5L13,9.8c-0.3,0-0.8,0.1-1.5,0.2c-0.7,0.1-1.2,0.1-1.6,0.2v0.5c0.4,0,0.7,0,0.9,0.1c0.2,0.1,0.3,0.2,0.3,0.5v0.1
		c0,0,0,0.1,0,0.2l-1.2,4.4c-0.1,0.3-0.2,0.6-0.2,0.8c-0.1,0.3-0.1,0.6-0.1,0.8c0,0.5,0.1,0.8,0.4,1c0.3,0.2,0.6,0.3,1,0.3
		c0.6,0,1.2-0.3,1.8-0.8c0.3-0.3,0.8-1,1.4-1.9l-0.4-0.3C13.4,16.1,13.1,16.5,12.9,16.8z"/>
	<path d="M13.2,5.2c-0.4,0-0.7,0.1-0.9,0.4c-0.3,0.3-0.4,0.5-0.4,0.9c0,0.4,0.1,0.7,0.4,0.9c0.3,0.3,0.5,0.4,0.9,0.4
		c0.4,0,0.7-0.1,0.9-0.4s0.4-0.5,0.4-0.9c0-0.4-0.1-0.7-0.4-0.9C13.9,5.4,13.6,5.2,13.2,5.2z"/>
</g>
</svg>
