<?xml version="1.0" encoding="utf-8"?>
<!-- Generator: Adobe Illustrator 21.1.0, SVG Export Plug-In . SVG Version: 6.00 Build 0)  -->
<svg version="1.1" id="Layer_1" xmlns="http://www.w3.org/2000/svg" xmlns:xlink="http://www.w3.org/1999/xlink" x="0px" y="0px"
	 viewBox="0 0 24 24" style="enable-background:new 0 0 24 24;" xml:space="preserve">
<path d="M12,1C5.9,1,1,5.9,1,12s4.9,11,11,11s11-4.9,11-11S18.1,1,12,1z M12.8,18.1c-0.6,0.5-1.2,0.8-1.8,0.8c-0.4,0-0.7-0.1-1-0.3
	s-0.4-0.5-0.4-1c0-0.2,0-0.5,0.1-0.8c0-0.2,0.1-0.5,0.2-0.8l1.2-4.4c0-0.1,0-0.2,0-0.2v-0.1c0-0.3-0.1-0.4-0.3-0.5
	c-0.2-0.1-0.5-0.1-0.9-0.1v-0.5c0.4-0.1,0.9-0.1,1.6-0.2c0.7-0.1,1.2-0.2,1.5-0.2l0.9-0.2l-1.5,5.5c-0.2,0.5-0.3,0.8-0.3,1
	c-0.2,0.4-0.2,0.7-0.2,0.9c0,0.2,0,0.3,0.1,0.3s0.1,0,0.2,0c0.2,0,0.4-0.2,0.7-0.5c0.2-0.3,0.5-0.7,0.9-0.9l0.4,0.3
	C13.6,17.1,13.1,17.8,12.8,18.1z M14.1,7.4c-0.2,0.3-0.5,0.4-0.9,0.4c-0.4,0-0.6-0.1-0.9-0.4c-0.3-0.2-0.4-0.5-0.4-0.9
	c0-0.4,0.1-0.6,0.4-0.9c0.2-0.3,0.5-0.4,0.9-0.4c0.4,0,0.7,0.2,0.9,0.4c0.3,0.2,0.4,0.5,0.4,0.9C14.5,6.9,14.3,7.1,14.1,7.4z"/>
</svg>
