<svg xmlns="http://www.w3.org/2000/svg" viewBox="0 0 168.14 40"><defs><style>.cls-1{fill:#81358a;}.cls-2{fill:#484848;}</style></defs><title>Asset 1</title><g id="Layer_2" data-name="Layer 2"><g id="Header_Nav" data-name="Header Nav"><path id="SYMBOL" class="cls-1" d="M29.31,5.66l-10-5A7.57,7.57,0,0,0,16.16,0a6.61,6.61,0,0,0-3,.69l-10,5A6,6,0,0,0,0,10.83V29.17a6,6,0,0,0,3.2,5.17l10,5a7.57,7.57,0,0,0,3.16.69h0a6.6,6.6,0,0,0,3-.69l10-5a6,6,0,0,0,3.2-5.17V10.83A6,6,0,0,0,29.31,5.66ZM30,29.17a3.52,3.52,0,0,1-1.83,3l-10,5a4.14,4.14,0,0,1-1.87.43h0a5.28,5.28,0,0,1-2.05-.43l-6-3,6-3a2.79,2.79,0,0,0,5-1.66c0-.24,0-8.73,0-8.73l.73-.35a1.71,1.71,0,1,0-.53-1.23v0l-1.13.57a.66.66,0,0,0-.36.59v6.78a2.8,2.8,0,0,0-.88-.37v-13l4-2a1.71,1.71,0,1,0-.6-1.3s0,.08,0,.12l-4.2,2.11a2.8,2.8,0,0,0-4.93,1.82c0,.06,0,8.85,0,8.85l-.9.45a1.74,1.74,0,1,0,.7,1.12l1.16-.58a.66.66,0,0,0,.36-.59V16.74a2.79,2.79,0,0,0,.88.37V29.92L6.78,33.36,4.31,32.12a3.52,3.52,0,0,1-1.83-3V10.83a3.52,3.52,0,0,1,1.83-3l10-5a4.15,4.15,0,0,1,1.87-.43,5.27,5.27,0,0,1,2.05.43l10,5a3.52,3.52,0,0,1,1.83,3V29.17ZM16.5,28a1.45,1.45,0,1,1-1.44,1.45A1.45,1.45,0,0,1,16.5,28Zm-.69-1.26a2.8,2.8,0,0,0-.85.38v-10a2.79,2.79,0,0,0,.85-.38ZM14.25,15.84a1.46,1.46,0,1,1,1.47-1.46A1.46,1.46,0,0,1,14.25,15.84Zm6.16,3.27a.8.8,0,1,1,.8.8A.8.8,0,0,1,20.41,19.11Zm1.07-8.78a.8.8,0,1,1,.8.8A.8.8,0,0,1,21.49,10.33ZM10.35,25.07a.8.8,0,1,1-.8-.8A.8.8,0,0,1,10.35,25.07Z"/><g id="FINNA"><path class="cls-2" d="M122.75,23h-3.58c.59-2.3,1.2-4.87,1.79-7,.59,2.17,1.2,4.74,1.79,7m4.56,5.84L122.39,9.52a1.44,1.44,0,0,0-2.84,0l-4.93,19.34a1.6,1.6,0,0,0,1,2,1.46,1.46,0,0,0,1.82-1.1c.09-.27.15-.6.25-1,.15-.63.37-1.5.65-2.53h5.24c.24,1,.49,1.9.65,2.53.09.37.15.7.25,1a1.46,1.46,0,0,0,1.82,1.1,1.6,1.6,0,0,0,1-2m-22.35,2a1.6,1.6,0,0,0,1.14-1.57V10a1.49,1.49,0,1,0-3,0V22.29c-1.32-2.9-2.74-6.13-3.88-8.67-.68-1.5-1.32-2.93-1.95-4.37a1.45,1.45,0,0,0-1.66-.86A1.52,1.52,0,0,0,94.52,10V29.29a1.48,1.48,0,1,0,3,0V17c1.27,2.9,2.74,6.14,3.88,8.67.68,1.5,1.33,2.93,1.94,4.37a1.43,1.43,0,0,0,1.67.87m-21.39,0a1.59,1.59,0,0,0,1.14-1.57V10a1.48,1.48,0,1,0-3,0V22.29c-1.33-2.9-2.74-6.13-3.89-8.67-.68-1.5-1.32-2.93-1.94-4.37a1.45,1.45,0,0,0-1.67-.86A1.52,1.52,0,0,0,73.13,10V29.29a1.48,1.48,0,1,0,3,0V17c1.26,2.9,2.74,6.14,3.88,8.67.68,1.5,1.32,2.93,1.94,4.37a1.43,1.43,0,0,0,1.67.87m-21.73,0a1.53,1.53,0,0,0,1.48-1.6V10a1.48,1.48,0,1,0-3,0V29.29a1.52,1.52,0,0,0,1.48,1.6m-17.7-.13a1.52,1.52,0,0,0,1.48-1.6V20.89H49.7a1.6,1.6,0,0,0,0-3.2H45.63v-6h4.69a1.52,1.52,0,0,0,1.48-1.6,1.52,1.52,0,0,0-1.48-1.6H44.15a1.52,1.52,0,0,0-1.48,1.6V29.16a1.52,1.52,0,0,0,1.48,1.6"/></g><g id="FI"><path class="cls-2" d="M166.66,30.82a1.52,1.52,0,0,0,1.48-1.6V9.88a1.48,1.48,0,1,0-3,0V29.22a1.52,1.52,0,0,0,1.48,1.6"/><path class="cls-2" d="M149,30.68a1.52,1.52,0,0,0,1.48-1.6V20.82h4.07a1.6,1.6,0,0,0,0-3.2h-4.07v-6h4.69a1.52,1.52,0,0,0,1.48-1.6,1.52,1.52,0,0,0-1.48-1.6H149a1.52,1.52,0,0,0-1.48,1.6V29.09a1.52,1.52,0,0,0,1.48,1.6"/></g><path class="cls-2" d="M137.72,27.38A1.67,1.67,0,1,1,136,29.05,1.68,1.68,0,0,1,137.72,27.38Z"/></g></g></svg>